<svg xmlns="http://www.w3.org/2000/svg" viewBox="0 0 559.68 101.65"><defs><style>.cls-1{fill:#fff;}.cls-2{fill:#0039a6;}</style></defs><title>Capa 2</title><g id="Capa_2" data-name="Capa 2"><g id="Capa_1-2" data-name="Capa 1"><g id="Capa_2-2" data-name="Capa 2"><g id="Layer_1" data-name="Layer 1"><path class="cls-1" d="M275.82,29.53c-16,0-27.36,11.54-27.4,30.27,0,17,13.6,27.62,27.5,27.63,8.27,0,13.42-1.28,16.4-3.71V74.23A31.62,31.62,0,0,1,278.57,77C270,77,263.11,72.33,262,64.83l-.1-.66h10c9.4,0,16-.87,20.21-2.93s6-5.23,6-10.29C298.11,37.71,287.42,29.54,275.82,29.53Zm6.51,24.52c-2.59.91-6.75,1.26-13.52,1.27h-7v-.61L262,52.8h0c.32-6.77,5.34-12.64,12.56-12.64,3.38,0,6.2.73,8.22,2.25A8.11,8.11,0,0,1,286,49.25c.05,2.17-.95,3.94-3.62,4.8ZM305,51.12V86.47h13.13V53.66c0-4.39.88-7.57,2.68-9.68s4.48-3,7.76-3a19.41,19.41,0,0,1,3.57.3V30.87a14.36,14.36,0,0,0-6.64-1.37C310.79,29.52,305.05,39.94,305,51.12ZM132.35,15.26V86.47h13.1V15.26ZM180.8,29.53c-17.5,0-25.12,12-25.16,23.72V86.47h13V54.22c0-4.16,1.08-7.49,3-9.79a10,10,0,0,1,8-3.53c3.76,0,6.84,1.09,9,3.48s3.17,6,3.17,10.88V86.47h13V54C204.76,38.19,194,29.55,180.8,29.53Zm47-14.27h-13V66.64c.07,13,6.63,20.73,20.81,20.79,6,0,9.64-2,11.12-5.09V74.25a23.87,23.87,0,0,1-9.43,1.49c-2.94,0-5.39-.75-7.07-2.53s-2.52-4.49-2.52-8.26V40.9h11.37c5.55,0,7.88-3.55,7.9-6.16V29.53H227.82ZM475.47,29.53c-17.49,0-25.12,12-25.16,23.72l.07,33.22h13V54.22c0-4.16,1.08-7.49,3-9.79a10,10,0,0,1,7.95-3.53c3.75,0,6.85,1.09,8.95,3.49s3.18,6,3.18,10.88v31.2h13V54C499.44,38.19,488.68,29.55,475.47,29.53Zm-108.66,0c-7.34,0-11.94,4.35-14.7,8.39l-1.05,1.52V15.26h-12.9V59.37c0,18.77,11.28,28.06,25.95,28.06,16.69,0,27.22-13.14,27.25-30C391.33,41,380.69,29.53,366.81,29.53Zm-1.25,46.84h0c-4.25,0-8.11-1.26-10.63-4.37s-3.74-8-3.74-14.63c0-9,5.46-16.46,12.95-16.47,4.35,0,7.92,1.19,10.33,4.26s3.63,7.78,3.63,14.73C378.07,69.24,372.93,76.35,365.56,76.37Zm52.56-46.84c-7.93,0-13.13,2.14-16.77,5v9.16A33,33,0,0,1,416,40.46c4.28,0,8,.61,10.2,2.35s3.18,4.58,3.18,8.66v1.31h-5.56C402.93,52.87,396,60.26,396,70c0,10,8.95,17.42,22.31,17.43h2.87c12.44,0,21-8.05,21-19.75V54.63C442.2,34.72,430.66,29.62,418.12,29.53Zm11.37,38.26c0,3-.77,5.36-2.43,7s-4.1,2.35-7.25,2.35h0a13,13,0,0,1-7.61-2,6.69,6.69,0,0,1-2.83-5.65,6.18,6.18,0,0,1,3.18-5.82c2.3-1.3,5.84-1.91,11.3-1.92h5.67Z"/><path class="cls-1" d="M536.68,56.92l-.29-.38.29-.35C542.4,49,554.76,35,559.4,30.82h-7.21c-4.53,0-7.66.5-10.94,3.51-6.51,6.17-11.91,13.4-17.42,20.56l-1.05,1.38.05-41H509.64v71.1h13.11V57.55l1.06,1.39c6.24,8.31,12.58,16.71,19.86,24.16a13.39,13.39,0,0,0,8.92,3.7c3.6,0,5.66-.91,7.09-2.63C556.09,79.84,541.12,62.33,536.68,56.92Z"/><path class="cls-2" d="M13.57,0A13.61,13.61,0,0,0,0,13.65H0v88H88.12A13.61,13.61,0,0,0,101.7,88h0V0ZM78,73.39,23.74,83.2V28.48L78,18.69Z"/></g></g></g></g></svg>